<?xml version="1.0" encoding="UTF-8" standalone="no"?>
<svg
   xmlns:dc="http://purl.org/dc/elements/1.1/"
   xmlns:cc="http://creativecommons.org/ns#"
   xmlns:rdf="http://www.w3.org/1999/02/22-rdf-syntax-ns#"
   xmlns:svg="http://www.w3.org/2000/svg"
   xmlns="http://www.w3.org/2000/svg"
   xmlns:sodipodi="http://sodipodi.sourceforge.net/DTD/sodipodi-0.dtd"
   xmlns:inkscape="http://www.inkscape.org/namespaces/inkscape"
   width="800pt"
   height="578pt"
   viewBox="0 0 800 578"
   version="1.1"
   id="svg2"
   inkscape:version="0.91 r13725"
   sodipodi:docname="CMDABBS-Header.svg"
   inkscape:export-filename="/home/craig/Downloads/Pictures/CMDABBS-Header.png"
   inkscape:export-xdpi="90"
   inkscape:export-ydpi="90">
  <metadata
     id="metadata92">
    <rdf:RDF>
      <cc:Work
         rdf:about="">
        <dc:format>image/svg+xml</dc:format>
        <dc:type
           rdf:resource="http://purl.org/dc/dcmitype/StillImage" />
        <dc:title></dc:title>
      </cc:Work>
    </rdf:RDF>
  </metadata>
  <defs
     id="defs90" />
  <sodipodi:namedview
     pagecolor="#ffffff"
     bordercolor="#666666"
     borderopacity="1"
     objecttolerance="10"
     gridtolerance="10"
     guidetolerance="10"
     inkscape:pageopacity="0"
     inkscape:pageshadow="2"
     inkscape:window-width="2560"
     inkscape:window-height="1376"
     id="namedview88"
     showgrid="false"
     inkscape:zoom="1.3065744"
     inkscape:cx="419.55518"
     inkscape:cy="355.21263"
     inkscape:window-x="0"
     inkscape:window-y="0"
     inkscape:window-maximized="1"
     inkscape:current-layer="svg2" />
  <path
     d="m 262.14191,76.696507 c 2.21364,-4.611738 4.20327,-9.407945 7.3722,-13.472862 -0.3953,4.064917 -1.37694,8.044188 -1.80517,12.109105 -1.21223,15.133088 1.16611,30.53629 6.79243,44.63503 4.82256,10.6597 11.45687,20.69353 20.23894,28.50054 -1.39011,-3.96609 -3.33363,-7.70819 -4.86868,-11.61499 -3.11621,-7.83995 -4.97409,-16.23991 -4.78303,-24.69915 -0.31623,-9.79006 3.22163,-20.061058 10.719,-26.603137 -0.97506,4.196681 -2.09505,8.426303 -1.88423,12.774513 0.21741,9.513354 3.49175,18.591894 7.22067,27.235604 4.2428,9.42112 9.51994,18.34154 15.28461,26.89961 6.56844,9.86252 14.48086,18.82906 20.12036,29.30429 7.87948,13.85498 11.93122,29.76547 11.95098,45.68256 -0.0593,8.07054 -1.65363,16.03567 -3.59715,23.8295 -2.60234,9.47383 -7.6489,18.10437 -13.55192,25.88503 -5.57362,7.42489 -13.05781,13.17639 -20.99658,17.86719 -6.79902,3.86068 -14.1251,7.33925 -22.02435,7.95195 4.79212,-2.21441 8.34647,-4.24103 12.00951,-6.94878 11.7204,-7.70819 21.06983,-18.78472 26.97944,-31.53947 3.57739,-8.51853 6.76608,-17.59048 6.46961,-26.94572 -1.34186,4.12888 -2.66822,7.8136 -4.1835,11.6677 -2.21364,5.57361 -4.89503,10.97593 -8.29454,15.93026 -3.20845,4.63809 -6.27855,9.44088 -10.32371,13.40698 -2.53645,2.51669 -5.03338,5.05973 -7.57642,7.56325 -7.00326,6.84513 -15.56791,11.99051 -24.69256,15.48226 -7.4249,2.8461 -15.59427,3.35998 -23.40787,2.15434 -2.66163,-0.38871 -5.17832,-1.35058 -7.56325,-2.54963 8.4856,-0.93553 17.2479,-1.75246 25.03515,-5.53409 9.11807,-4.28892 17.22155,-10.79805 23.26951,-18.87518 5.87667,-7.16137 9.96794,-15.63379 12.60322,-24.48833 4.4668,-13.25545 3.87386,-27.95372 -0.78399,-41.07082 -3.92657,-11.89169 -10.97594,-22.43281 -18.68413,-32.18334 -3.63668,-4.30868 -6.92419,-8.88747 -10.46864,-13.26204 -3.20846,-3.72892 -5.59997,-8.04418 -8.29454,-12.13545 -4.20327,-6.21267 -7.35902,-13.07757 -10.06677,-20.05447 -6.31149,-18.33495 -5.60655,-38.982358 1.7854,-56.902253 z"
     id="path6"
     inkscape:connector-curvature="0"
     style="fill:#b8cc3f"
     sodipodi:nodetypes="cccccccccccccccccccccccccccccccccccc"
     inkscape:export-xdpi="90"
     inkscape:export-ydpi="90" />
  <path
     d="m 248.09588,124.09858 c 1.7854,4.90821 2.29928,10.159 4.12421,15.05403 2.76045,7.30631 6.17314,14.40839 10.48182,20.93728 5.77785,8.38678 12.01687,16.44414 18.59189,24.2248 7.58302,9.67147 14.83003,20.01494 18.38766,31.91981 3.31386,10.27759 3.83433,21.51047 0.90917,31.94617 -1.49552,6.60137 -4.95433,12.47804 -8.39995,18.21636 -7.01643,10.85735 -17.67613,19.85024 -30.44406,22.86105 -6.08749,1.21222 -12.35287,2.20704 -18.55895,1.37034 -7.13501,-0.80376 -14.34909,-2.43763 -20.58811,-6.12702 -10.67947,-5.79103 -17.99237,-15.99614 -23.52645,-26.52408 -5.40891,-11.52935 -6.97031,-24.89021 -3.9068,-37.28919 1.40987,-5.4748 3.19527,-10.90347 5.94255,-15.86438 4.34162,-7.51055 8.96654,-14.89591 14.67191,-21.45776 10.11947,-13.04463 21.45776,-25.72691 27.0709,-41.53857 2.38493,-5.71856 3.44563,-11.8324 5.24421,-17.72884 z"
     id="path8"
     inkscape:connector-curvature="0"
     style="fill:#07bef3"
     inkscape:export-xdpi="90"
     inkscape:export-ydpi="90" />
  <path
     d="m 248.31988,162.67247 c -0.54023,-2.51669 0.76685,-3.46441 1.9284,-7.68496 2.86586,6.17314 5.94449,13.25857 9.87765,18.85195 9.36182,14.0658 22.22857,25.85867 28.94194,41.61764 4.42727,9.80323 5.42209,21.1547 2.12799,31.45205 -2.46399,7.80042 -6.33063,15.56967 -12.77451,20.79235 3.19222,-4.6106 6.08749,-8.80183 7.87289,-13.87475 3.22822,-7.43807 3.6828,-15.79849 2.43105,-23.73068 -1.60752,-8.70301 -6.05456,-16.54955 -10.92323,-23.81633 -8.41972,-12.36605 -19.33636,-22.99281 -26.28032,-36.36026 -1.19905,-2.35198 -2.54963,-4.67762 -3.20186,-7.24701 z"
     id="path10"
     inkscape:connector-curvature="0"
     style="fill:#fefefe"
     sodipodi:nodetypes="ccccccccccc"
     inkscape:export-xdpi="90"
     inkscape:export-ydpi="90" />
  <path
     d="m 205.92483,216.25427 c 1.98305,-5.11903 4.21645,-10.25123 7.75431,-14.50721 -1.95618,4.64468 -4.11851,8.88773 -5.27715,13.81545 -3.31386,11.68746 -2.26634,24.48833 2.76705,35.53014 3.53786,7.78066 8.11007,15.31097 14.50062,21.07564 1.05831,1.27031 5.73982,5.22367 10.96276,7.75431 -4.67762,-0.35576 -8.80183,-2.85269 -12.60981,-5.39573 -7.85972,-5.67244 -13.86157,-13.69686 -17.59049,-22.6041 -4.82914,-11.21312 -4.83573,-24.29727 -0.50729,-35.6685 z"
     id="path12"
     inkscape:connector-curvature="0"
     style="fill:#fefefe"
     sodipodi:nodetypes="ccccccccc"
     inkscape:export-xdpi="90"
     inkscape:export-ydpi="90" />
  <flowRoot
     xml:space="preserve"
     id="flowRoot4220"
     style="font-style:normal;font-weight:normal;font-size:40px;line-height:125%;font-family:sans-serif;letter-spacing:0px;word-spacing:0px;fill:#07bef3;fill-opacity:1;stroke:none;stroke-width:1px;stroke-linecap:butt;stroke-linejoin:miter;stroke-opacity:1"
     transform="matrix(1.3254881,0,0,1.3254881,449.3442,-430.05125)"><flowRegion
       id="flowRegion4222"><rect
         id="rect4224"
         width="544.43854"
         height="204.57034"
         x="-59.531052"
         y="421.5976"
         style="fill:#07bef3;fill-opacity:1" /></flowRegion><flowPara
       id="flowPara4226"
       style="font-style:normal;font-variant:normal;font-weight:bold;font-stretch:normal;font-size:62.5px;font-family:Ubuntu;-inkscape-font-specification:'Ubuntu Bold'">CM Dabbs</flowPara></flowRoot>  <text
     xml:space="preserve"
     style="font-style:normal;font-weight:normal;font-size:41.6716156px;line-height:125%;font-family:sans-serif;letter-spacing:0px;word-spacing:0px;fill:#b8cc3f;fill-opacity:1;stroke:none;stroke-width:1px;stroke-linecap:butt;stroke-linejoin:miter;stroke-opacity:1"
     x="372.11899"
     y="257.76007"
     id="text4186"
     sodipodi:linespacing="125%"><tspan
       sodipodi:role="line"
       id="tspan4188"
       x="372.11899"
       y="257.76007"
       style="font-style:normal;font-variant:normal;font-weight:bold;font-stretch:normal;font-family:Ubuntu;-inkscape-font-specification:'Ubuntu Bold';fill:#b8cc3f;fill-opacity:1">Plumbing &amp; Heating</tspan></text>
</svg>
