<?xml version="1.0" encoding="UTF-8" standalone="no"?>
<svg
   xmlns:dc="http://purl.org/dc/elements/1.1/"
   xmlns:cc="http://creativecommons.org/ns#"
   xmlns:rdf="http://www.w3.org/1999/02/22-rdf-syntax-ns#"
   xmlns:svg="http://www.w3.org/2000/svg"
   xmlns="http://www.w3.org/2000/svg"
   xmlns:sodipodi="http://sodipodi.sourceforge.net/DTD/sodipodi-0.dtd"
   xmlns:inkscape="http://www.inkscape.org/namespaces/inkscape"
   width="473pt"
   height="578pt"
   viewBox="0 0 473 578"
   version="1.1"
   id="svg2"
   inkscape:version="0.91 r13725"
   sodipodi:docname="CMDABBS-Logo.svg">
  <metadata
     id="metadata92">
    <rdf:RDF>
      <cc:Work
         rdf:about="">
        <dc:format>image/svg+xml</dc:format>
        <dc:type
           rdf:resource="http://purl.org/dc/dcmitype/StillImage" />
      </cc:Work>
    </rdf:RDF>
  </metadata>
  <defs
     id="defs90" />
  <sodipodi:namedview
     pagecolor="#ffffff"
     bordercolor="#666666"
     borderopacity="1"
     objecttolerance="10"
     gridtolerance="10"
     guidetolerance="10"
     inkscape:pageopacity="0"
     inkscape:pageshadow="2"
     inkscape:window-width="1276"
     inkscape:window-height="1376"
     id="namedview88"
     showgrid="false"
     inkscape:zoom="0.92388761"
     inkscape:cx="244.88457"
     inkscape:cy="111.28851"
     inkscape:window-x="0"
     inkscape:window-y="0"
     inkscape:window-maximized="0"
     inkscape:current-layer="svg2" />
  <path
     fill="#fefefe"
     d=" M 0.00 0.00 L 473.00 0.00 L 473.00 578.00 L 0.00 578.00 L 0.00 0.00 Z"
     id="path4" />
  <path
     fill="#b8cc3f"
     d=" M 217.42 29.18 C 220.78 22.18 223.80 14.90 228.61 8.73 C 228.01 14.90 226.52 20.94 225.87 27.11 C 224.03 50.08 227.64 73.46 236.18 94.86 C 243.50 111.04 253.57 126.27 266.90 138.12 C 264.79 132.10 261.84 126.42 259.51 120.49 C 254.78 108.59 251.96 95.84 252.25 83.00 C 251.77 68.14 257.14 52.55 268.52 42.62 C 267.04 48.99 265.34 55.41 265.66 62.01 C 265.99 76.45 270.96 90.23 276.62 103.35 C 283.06 117.65 291.07 131.19 299.82 144.18 C 309.79 159.15 321.80 172.76 330.36 188.66 C 342.32 209.69 348.47 233.84 348.50 258.00 C 348.41 270.25 345.99 282.34 343.04 294.17 C 339.09 308.55 331.43 321.65 322.47 333.46 C 314.01 344.73 302.65 353.46 290.60 360.58 C 280.28 366.44 269.16 371.72 257.17 372.65 C 262.76 368.60 269.15 365.83 274.71 361.72 C 292.50 350.02 307.38 333.59 316.35 314.23 C 321.78 301.30 326.62 287.53 326.17 273.33 C 323.10 278.87 322.12 285.19 319.82 291.04 C 316.46 299.50 312.39 307.70 307.23 315.22 C 302.36 322.26 297.70 329.55 291.56 335.57 C 287.71 339.39 283.92 343.25 280.06 347.05 C 269.43 357.44 256.43 365.25 242.58 370.55 C 231.31 374.87 218.91 375.65 207.05 373.82 C 203.01 373.23 199.19 371.77 195.57 369.95 C 208.45 368.53 221.75 367.29 233.57 361.55 C 247.41 355.04 259.71 345.16 268.89 332.90 C 277.81 322.03 284.02 309.17 288.02 295.73 C 294.80 275.61 293.90 253.30 286.83 233.39 C 280.87 215.34 270.17 199.34 258.47 184.54 C 252.95 178.00 247.96 171.05 242.58 164.41 C 237.71 158.75 234.08 152.20 229.99 145.99 C 223.61 136.56 218.82 126.14 214.71 115.55 C 205.13 87.72 206.20 56.38 217.42 29.18 Z"
     id="path6" />
  <path
     fill="#07bef3"
     d=" M 196.10 101.13 C 198.81 108.58 199.59 116.55 202.36 123.98 C 206.55 135.07 211.73 145.85 218.27 155.76 C 227.04 168.49 236.51 180.72 246.49 192.53 C 258.00 207.21 269.00 222.91 274.40 240.98 C 279.43 256.58 280.22 273.63 275.78 289.47 C 273.51 299.49 268.26 308.41 263.03 317.12 C 252.38 333.60 236.20 347.25 216.82 351.82 C 207.58 353.66 198.07 355.17 188.65 353.90 C 177.82 352.68 166.87 350.20 157.40 344.60 C 141.19 335.81 130.09 320.32 121.69 304.34 C 113.48 286.84 111.11 266.56 115.76 247.74 C 117.90 239.43 120.61 231.19 124.78 223.66 C 131.37 212.26 138.39 201.05 147.05 191.09 C 162.41 171.29 179.62 152.04 188.14 128.04 C 191.76 119.36 193.37 110.08 196.10 101.13 Z"
     id="path8" />
  <path
     fill="#fefefe"
     d=" M 196.44 159.68 C 195.62 155.86 198.19 152.49 199.80 149.26 C 204.15 158.63 208.39 168.14 214.36 176.63 C 228.57 197.98 248.10 215.88 258.29 239.80 C 265.01 254.68 266.52 271.91 261.52 287.54 C 257.78 299.38 251.49 310.79 242.13 319.10 C 246.21 312.14 251.37 305.74 254.08 298.04 C 258.98 286.75 259.67 274.06 257.77 262.02 C 255.33 248.81 248.58 236.90 241.19 225.87 C 228.41 207.10 211.84 190.97 201.30 170.68 C 199.48 167.11 197.43 163.58 196.44 159.68 Z"
     id="path10" />
  <path
     fill="#fefefe"
     d=" M 132.09 241.01 C 135.10 233.24 138.49 225.45 143.86 218.99 C 141.35 226.04 137.80 232.71 135.85 239.96 C 130.82 257.70 132.41 277.13 140.05 293.89 C 145.42 305.70 152.36 317.13 162.06 325.88 C 167.13 330.46 173.37 333.43 178.70 337.65 C 171.60 337.11 165.34 333.32 159.56 329.46 C 147.63 320.85 138.52 308.67 132.86 295.15 C 125.53 278.13 125.52 258.27 132.09 241.01 Z"
     id="path12" />
  <path
     fill="#07bef3"
     d=" M 300.05 414.96 C 304.01 414.26 307.98 413.61 311.96 412.98 C 312.01 419.82 312.02 426.65 312.00 433.49 C 317.50 432.02 323.75 430.98 328.94 434.05 C 335.58 437.72 337.87 445.88 338.02 452.99 C 338.37 460.74 335.39 469.34 328.24 473.22 C 319.57 478.01 309.28 475.62 300.12 473.84 C 299.87 454.21 300.00 434.58 300.05 414.96 Z"
     id="path14" />
  <path
     fill="#07bef3"
     d=" M 350.05 414.96 C 354.01 414.26 357.98 413.61 361.96 412.98 C 362.01 419.82 362.02 426.65 362.00 433.49 C 367.51 432.02 373.76 430.99 378.94 434.05 C 385.58 437.72 387.87 445.88 388.02 452.99 C 388.37 460.74 385.39 469.33 378.24 473.22 C 369.58 478.01 359.28 475.62 350.12 473.84 C 349.87 454.21 350.01 434.58 350.05 414.96 Z"
     id="path16" />
  <path
     fill="#07bef3"
     d=" M 51.31 425.27 C 61.22 417.06 75.93 417.45 87.01 423.05 C 85.89 426.32 84.76 429.59 83.65 432.88 C 76.48 430.69 68.17 428.13 61.17 432.17 C 54.86 435.89 53.29 444.07 54.22 450.82 C 54.69 456.04 57.40 461.42 62.46 463.52 C 69.65 466.58 77.62 464.37 84.75 462.26 C 85.84 465.51 86.95 468.74 88.05 471.99 C 78.70 476.32 67.69 477.46 57.84 474.18 C 50.47 471.79 44.99 465.21 43.21 457.76 C 40.33 446.60 42.07 433.06 51.31 425.27 Z"
     id="path18" />
  <path
     fill="#07bef3"
     d=" M 100.99 420.04 C 105.02 420.00 109.04 419.99 113.07 419.95 C 119.04 430.35 123.29 441.60 128.40 452.42 C 133.59 441.75 137.72 430.60 143.23 420.08 C 147.16 420.01 151.09 419.99 155.02 420.02 C 157.27 438.26 158.16 456.64 159.00 475.00 C 155.01 475.00 151.02 475.00 147.03 475.00 C 146.54 463.21 146.32 451.40 145.17 439.64 C 140.29 448.72 136.90 458.49 132.70 467.88 C 129.80 467.95 126.89 468.00 123.99 468.07 C 119.31 458.72 115.93 448.77 110.82 439.64 C 109.68 451.39 109.45 463.21 108.96 475.00 C 104.97 475.00 100.99 475.00 97.00 475.00 C 97.88 456.66 98.61 438.26 100.99 420.04 Z"
     id="path20" />
  <path
     fill="#07bef3"
     d=" M 193.14 421.15 C 204.38 419.89 216.27 418.65 227.06 422.88 C 234.28 425.66 239.70 432.29 241.18 439.86 C 243.60 450.69 241.28 463.96 231.43 470.45 C 220.13 477.78 205.87 476.38 193.15 474.78 C 192.89 456.91 192.90 439.02 193.14 421.15 Z"
     id="path22" />
  <path
     fill="#fefefe"
     d=" M 205.07 431.05 C 212.38 430.92 221.19 430.49 226.47 436.53 C 231.95 443.83 231.38 456.12 223.61 461.63 C 218.19 465.35 211.32 464.99 205.05 465.03 C 204.99 453.70 204.95 442.37 205.07 431.05 Z"
     id="path24" />
  <path
     fill="#07bef3"
     d=" M 255.88 433.95 C 263.36 432.12 271.73 430.53 278.98 433.99 C 283.85 436.30 285.70 441.95 285.89 446.98 C 286.20 455.97 285.96 464.98 285.94 473.98 C 277.36 475.75 268.12 477.43 259.61 474.49 C 250.00 471.22 249.17 455.67 258.09 451.12 C 263.12 448.39 269.04 449.08 274.53 449.31 C 273.51 446.93 273.21 443.53 270.41 442.56 C 266.20 441.35 261.82 442.62 257.63 443.28 C 257.04 440.17 256.49 437.06 255.88 433.95 Z"
     id="path26" />
  <path
     fill="#07bef3"
     d=" M 405.00 433.99 C 411.96 430.59 420.02 432.10 427.18 434.01 C 426.49 437.20 425.80 440.39 425.11 443.58 C 420.95 442.74 416.64 441.42 412.39 442.37 C 410.36 442.78 410.35 445.25 409.53 446.75 C 414.28 448.46 419.36 449.06 424.05 450.94 C 428.11 452.86 429.06 457.93 429.05 461.99 C 429.19 466.89 426.56 471.91 421.95 473.90 C 414.04 477.44 404.97 476.13 396.93 473.71 C 397.52 470.39 398.16 467.08 398.83 463.78 C 404.90 465.50 411.36 466.84 417.58 464.92 C 416.81 463.52 416.57 461.70 415.28 460.69 C 410.99 458.25 405.44 458.70 401.56 455.46 C 395.66 449.44 397.03 437.60 405.00 433.99 Z"
     id="path28" />
  <path
     fill="#fefefe"
     d=" M 312.17 443.00 C 315.57 442.53 319.58 441.02 322.59 443.44 C 325.56 446.01 326.03 450.29 326.02 453.99 C 325.93 458.06 324.78 462.79 321.01 464.98 C 318.24 466.25 315.09 465.87 312.14 466.05 C 311.92 458.37 311.91 450.68 312.17 443.00 Z"
     id="path30" />
  <path
     fill="#fefefe"
     d=" M 362.17 443.01 C 365.56 442.53 369.58 441.02 372.59 443.44 C 375.56 446.01 376.03 450.29 376.02 454.00 C 375.93 458.06 374.78 462.79 371.01 464.98 C 368.25 466.24 365.09 465.87 362.14 466.05 C 361.91 458.37 361.91 450.69 362.17 443.01 Z"
     id="path32" />
  <path
     fill="#fefefe"
     d=" M 265.93 457.89 C 268.45 456.87 271.24 457.11 273.89 456.93 C 273.94 459.99 273.96 463.05 273.94 466.11 C 271.02 465.84 267.76 466.37 265.14 464.80 C 263.45 462.85 263.48 459.20 265.93 457.89 Z"
     id="path34" />
  <path
     fill="#b8cc3f"
     d=" M 74.08 513.02 C 76.03 512.66 77.97 512.30 79.92 511.94 C 80.09 517.64 79.97 523.34 79.93 529.04 C 79.67 534.02 82.35 538.49 82.51 543.43 C 80.25 542.80 77.76 542.57 75.79 541.20 C 73.93 539.36 74.12 536.49 73.95 534.08 C 73.87 527.06 73.99 520.04 74.08 513.02 Z"
     id="path36" />
  <path
     fill="#b8cc3f"
     d=" M 147.08 513.02 C 149.02 512.66 150.95 512.30 152.89 511.93 C 152.96 515.36 153.04 518.80 153.05 522.24 C 156.56 522.28 160.88 521.56 163.46 524.54 C 167.62 529.53 166.97 538.72 160.81 541.84 C 156.50 543.94 151.58 542.67 147.06 542.09 C 146.94 532.40 146.92 522.71 147.08 513.02 Z"
     id="path38" />
  <path
     fill="#b8cc3f"
     d=" M 172.41 512.34 C 173.99 511.48 175.76 512.35 177.11 513.24 C 177.67 515.47 177.76 518.63 174.76 518.89 C 170.81 520.14 168.39 513.81 172.41 512.34 Z"
     id="path40" />
  <path
     fill="#b8cc3f"
     d=" M 370.75 513.80 C 372.20 511.32 375.38 512.51 377.62 512.77 C 377.07 514.70 377.91 517.76 375.53 518.62 C 372.68 520.29 368.88 516.65 370.75 513.80 Z"
     id="path42" />
  <path
     fill="#b8cc3f"
     d=" M 47.95 515.69 C 53.38 515.01 59.22 514.11 64.38 516.49 C 70.68 519.14 70.67 529.77 64.36 532.39 C 61.14 533.78 57.57 533.93 54.14 534.34 C 54.05 537.23 53.97 540.12 53.88 543.01 C 51.93 542.99 49.98 542.99 48.03 543.01 C 47.92 533.90 48.02 524.80 47.95 515.69 Z"
     id="path44" />
  <path
     fill="#b8cc3f"
     d=" M 243.12 518.10 C 246.38 513.71 254.68 513.72 257.43 518.64 C 259.43 522.61 255.61 526.02 253.45 528.94 C 254.36 529.88 255.27 530.84 256.19 531.79 C 258.31 530.06 260.87 529.14 263.60 528.98 C 263.23 531.53 262.41 534.08 262.60 536.68 C 263.26 539.02 264.69 541.05 265.85 543.16 C 261.48 542.82 257.09 542.05 252.69 542.55 C 249.28 542.75 245.52 543.47 242.42 541.61 C 239.87 540.21 238.44 537.07 239.13 534.25 C 239.85 532.37 241.08 530.77 242.11 529.07 C 244.49 525.80 240.70 521.41 243.12 518.10 Z"
     id="path46" />
  <path
     fill="#b8cc3f"
     d=" M 279.03 514.99 C 280.99 515.00 282.96 515.00 284.93 514.99 C 284.98 518.65 285.04 522.32 285.08 526.00 C 288.69 525.97 292.30 525.98 295.92 525.99 C 295.95 522.32 296.02 518.66 296.07 514.99 C 298.03 515.00 300.00 515.00 301.97 514.99 C 302.04 524.33 302.05 533.67 301.97 543.01 C 299.99 542.99 298.03 542.99 296.06 543.01 C 296.00 539.00 295.97 535.00 295.93 531.01 C 292.31 531.02 288.69 531.02 285.07 531.01 C 285.03 535.00 284.99 539.00 284.94 543.01 C 282.97 542.99 281.00 542.99 279.03 543.01 C 278.95 533.67 278.95 524.33 279.03 514.99 Z"
     id="path48" />
  <path
     fill="#b8cc3f"
     d=" M 353.10 517.01 C 354.97 516.66 356.83 516.32 358.70 515.96 C 358.89 517.90 359.07 519.85 359.26 521.81 C 361.50 521.93 363.75 522.05 366.00 522.19 C 365.99 523.73 365.99 525.27 366.00 526.82 C 363.64 526.94 361.27 527.06 358.91 527.18 C 359.03 530.62 359.17 534.06 359.40 537.49 C 361.60 537.62 363.81 537.72 366.02 537.81 C 366.33 539.24 366.64 540.67 366.97 542.12 C 362.60 543.09 356.14 544.21 353.87 539.15 C 351.99 531.95 353.26 524.36 353.10 517.01 Z"
     id="path50" />
  <path
     fill="#fefefe"
     d=" M 54.06 519.72 C 56.39 520.02 58.82 520.06 61.05 520.91 C 63.95 522.29 63.64 527.62 60.33 528.29 C 58.28 528.87 56.15 529.02 54.05 529.29 C 54.02 526.10 54.02 522.91 54.06 519.72 Z"
     id="path52" />
  <path
     fill="#fefefe"
     d=" M 247.96 524.42 C 248.59 522.76 248.16 519.22 250.86 519.95 C 251.55 521.35 251.73 522.92 252.03 524.45 C 250.67 524.44 249.31 524.43 247.96 524.42 Z"
     id="path54" />
  <path
     fill="#b8cc3f"
     d=" M 87.04 521.99 C 89.02 522.00 90.99 522.00 92.96 521.99 C 93.05 526.52 92.62 531.13 93.46 535.62 C 93.87 538.08 97.01 537.73 98.82 538.46 C 99.02 532.97 99.00 527.48 99.03 521.99 C 101.01 522.00 102.98 522.00 104.95 521.99 C 105.08 528.69 105.08 535.38 104.92 542.08 C 99.67 542.68 92.87 544.74 88.84 540.15 C 85.67 534.69 87.28 528.00 87.04 521.99 Z"
     id="path56" />
  <path
     fill="#b8cc3f"
     d=" M 111.08 522.91 C 116.22 521.82 121.43 522.46 126.61 522.71 C 130.98 522.69 136.96 520.60 139.72 525.28 C 142.06 530.85 140.79 537.13 140.95 543.01 C 138.98 542.99 137.01 542.99 135.04 543.01 C 134.95 538.47 135.38 533.86 134.54 529.38 C 134.13 526.96 131.03 527.31 129.24 526.62 C 128.97 532.08 128.99 537.54 128.97 543.01 C 126.99 542.99 125.01 542.99 123.04 543.01 C 122.95 538.47 123.38 533.87 122.54 529.39 C 122.13 526.94 118.98 527.28 117.18 526.54 C 116.97 532.02 117.00 537.52 116.97 543.01 C 114.99 542.99 113.02 542.99 111.05 543.01 C 110.91 536.31 110.93 529.61 111.08 522.91 Z"
     id="path58" />
  <path
     fill="#b8cc3f"
     d=" M 171.05 521.99 C 173.01 522.00 174.98 522.00 176.96 521.99 C 177.07 528.99 177.07 536.00 176.96 543.01 C 174.98 542.99 173.01 542.99 171.05 543.01 C 170.93 536.00 170.93 529.00 171.05 521.99 Z"
     id="path60" />
  <path
     fill="#b8cc3f"
     d=" M 183.08 522.93 C 188.48 522.29 195.81 520.13 199.59 525.37 C 202.14 530.85 200.77 537.17 200.95 543.01 C 198.98 542.99 197.01 542.99 195.04 543.01 C 194.78 538.03 195.78 532.77 194.04 528.01 C 192.49 527.30 190.82 526.95 189.19 526.52 C 188.97 532.01 189.00 537.51 188.97 543.01 C 186.99 542.99 185.02 542.99 183.05 543.01 C 182.92 536.31 182.92 529.62 183.08 522.93 Z"
     id="path62" />
  <path
     fill="#b8cc3f"
     d=" M 210.46 523.48 C 214.89 520.95 220.16 522.28 224.92 522.91 C 224.90 529.55 225.50 536.22 224.71 542.84 C 224.43 545.56 222.65 548.03 220.08 549.04 C 215.93 550.84 211.33 549.74 207.07 549.00 C 207.36 547.46 207.66 545.93 207.95 544.40 C 210.78 544.59 213.68 545.13 216.49 544.51 C 217.95 543.79 218.65 542.16 219.67 540.97 C 216.06 540.68 211.90 541.45 208.83 539.11 C 204.43 534.98 205.04 526.49 210.46 523.48 Z"
     id="path64" />
  <path
     fill="#b8cc3f"
     d=" M 312.18 523.13 C 316.12 521.00 321.80 521.74 324.38 525.63 C 325.86 528.11 325.87 531.11 326.33 533.89 C 321.68 533.97 317.02 533.99 312.39 534.41 C 315.11 538.39 320.00 538.01 324.24 537.60 C 324.48 539.06 324.73 540.52 324.98 541.99 C 320.59 542.80 315.65 543.96 311.55 541.50 C 305.03 537.69 305.52 526.56 312.18 523.13 Z"
     id="path66" />
  <path
     fill="#b8cc3f"
     d=" M 331.86 522.96 C 336.42 522.08 342.78 520.54 345.83 525.18 C 348.04 530.52 346.80 536.51 346.92 542.13 C 342.56 542.71 337.92 543.82 333.65 542.22 C 329.32 540.72 328.64 533.92 332.39 531.44 C 335.07 530.05 338.19 530.01 341.11 529.53 C 340.88 529.01 340.42 527.97 340.19 527.45 C 337.72 527.37 335.25 527.34 332.78 527.36 C 332.48 525.89 332.17 524.41 331.86 522.96 Z"
     id="path68" />
  <path
     fill="#b8cc3f"
     d=" M 371.05 521.99 C 373.01 522.00 374.98 522.00 376.96 521.99 C 377.07 529.00 377.07 536.00 376.96 543.01 C 374.98 542.99 373.01 542.99 371.04 543.01 C 370.93 536.00 370.93 528.99 371.05 521.99 Z"
     id="path70" />
  <path
     fill="#b8cc3f"
     d=" M 383.08 522.92 C 388.48 522.29 395.81 520.13 399.59 525.37 C 402.13 530.85 400.77 537.16 400.95 543.01 C 398.98 542.99 397.01 542.99 395.04 543.01 C 394.95 538.46 395.37 533.86 394.55 529.37 C 394.17 526.91 390.98 527.29 389.19 526.54 C 388.97 532.02 389.00 537.52 388.97 543.01 C 386.99 542.99 385.02 542.99 383.05 543.01 C 382.91 536.31 382.92 529.62 383.08 522.92 Z"
     id="path72" />
  <path
     fill="#b8cc3f"
     d=" M 410.46 523.48 C 414.89 520.95 420.16 522.28 424.92 522.91 C 424.94 529.26 425.39 535.63 424.84 541.97 C 424.65 544.71 423.31 547.49 420.74 548.72 C 416.48 550.95 411.54 549.78 407.06 548.99 C 407.36 547.45 407.65 545.93 407.94 544.40 C 410.77 544.59 413.67 545.12 416.49 544.51 C 417.96 543.81 418.64 542.15 419.66 540.97 C 416.06 540.68 411.90 541.45 408.84 539.11 C 404.43 534.98 405.04 526.49 410.46 523.48 Z"
     id="path74" />
  <path
     fill="#fefefe"
     d=" M 152.90 527.47 C 154.65 527.44 156.53 526.94 158.21 527.66 C 160.45 529.45 160.35 532.88 159.42 535.35 C 158.54 537.96 155.30 537.65 153.17 538.46 C 153.02 534.80 152.99 531.13 152.90 527.47 Z"
     id="path76" />
  <path
     fill="#fefefe"
     d=" M 213.18 528.23 C 214.98 527.29 217.01 527.02 218.97 526.57 C 218.93 529.75 218.90 532.94 218.75 536.13 C 216.80 535.86 214.81 535.71 212.94 535.06 C 211.74 532.98 211.56 530.14 213.18 528.23 Z"
     id="path78" />
  <path
     fill="#fefefe"
     d=" M 312.34 529.71 C 313.58 528.77 314.79 527.76 316.19 527.05 C 317.98 527.08 319.23 528.82 320.68 529.71 C 317.90 529.84 315.11 529.83 312.34 529.71 Z"
     id="path80" />
  <path
     fill="#fefefe"
     d=" M 413.18 528.23 C 414.97 527.31 416.99 527.01 418.93 526.55 C 418.99 529.32 419.18 532.10 418.84 534.86 C 417.28 536.48 414.72 536.18 412.98 535.05 C 411.69 533.00 411.58 530.13 413.18 528.23 Z"
     id="path82" />
  <path
     fill="#fefefe"
     d=" M 246.86 530.62 C 249.22 532.94 251.42 535.43 253.40 538.09 C 250.54 537.73 246.83 538.51 244.93 535.76 C 245.41 533.99 246.18 532.31 246.86 530.62 Z"
     id="path84" />
  <path
     fill="#fefefe"
     d=" M 335.84 534.88 C 337.51 534.49 339.18 534.12 340.87 533.78 C 340.89 535.22 340.92 536.66 340.94 538.11 C 339.42 537.95 337.90 537.80 336.38 537.66 C 336.24 536.96 335.97 535.57 335.84 534.88 Z"
     id="path86" />
  <flowRoot
     xml:space="preserve"
     id="flowRoot4220"
     style="font-style:normal;font-weight:normal;font-size:40px;line-height:125%;font-family:sans-serif;letter-spacing:0px;word-spacing:0px;fill:#07bef3;fill-opacity:1;stroke:none;stroke-width:1px;stroke-linecap:butt;stroke-linejoin:miter;stroke-opacity:1"
     transform="matrix(0.8,0,0,0.8,-51.088465,10.390874)"><flowRegion
       id="flowRegion4222"><rect
         id="rect4224"
         width="544.43854"
         height="204.57034"
         x="-59.531052"
         y="421.5976"
         style="fill:#07bef3;fill-opacity:1" /></flowRegion><flowPara
       id="flowPara4226"
       style="font-style:normal;font-variant:normal;font-weight:bold;font-stretch:normal;font-size:62.5px;font-family:Ubuntu;-inkscape-font-specification:'Ubuntu Bold'">CM Dabbs</flowPara></flowRoot></svg>
